<svg id="visual" viewBox="0 0 540 960" width="540" height="960" xmlns="http://www.w3.org/2000/svg" xmlns:xlink="http://www.w3.org/1999/xlink" version="1.1"><rect x="0" y="0" width="540" height="960" fill="#001220"></rect><defs><linearGradient id="grad1_0" x1="0%" y1="0%" x2="100%" y2="100%"><stop offset="30%" stop-color="#fbae3c" stop-opacity="1"></stop><stop offset="70%" stop-color="#fbae3c" stop-opacity="1"></stop></linearGradient></defs><defs><linearGradient id="grad1_1" x1="0%" y1="0%" x2="100%" y2="100%"><stop offset="30%" stop-color="#fbae3c" stop-opacity="1"></stop><stop offset="70%" stop-color="#cc5867" stop-opacity="1"></stop></linearGradient></defs><defs><linearGradient id="grad1_2" x1="0%" y1="0%" x2="100%" y2="100%"><stop offset="30%" stop-color="#593762" stop-opacity="1"></stop><stop offset="70%" stop-color="#cc5867" stop-opacity="1"></stop></linearGradient></defs><defs><linearGradient id="grad1_3" x1="0%" y1="0%" x2="100%" y2="100%"><stop offset="30%" stop-color="#593762" stop-opacity="1"></stop><stop offset="70%" stop-color="#001220" stop-opacity="1"></stop></linearGradient></defs><defs><linearGradient id="grad2_0" x1="0%" y1="0%" x2="100%" y2="100%"><stop offset="30%" stop-color="#fbae3c" stop-opacity="1"></stop><stop offset="70%" stop-color="#fbae3c" stop-opacity="1"></stop></linearGradient></defs><defs><linearGradient id="grad2_1" x1="0%" y1="0%" x2="100%" y2="100%"><stop offset="30%" stop-color="#cc5867" stop-opacity="1"></stop><stop offset="70%" stop-color="#fbae3c" stop-opacity="1"></stop></linearGradient></defs><defs><linearGradient id="grad2_2" x1="0%" y1="0%" x2="100%" y2="100%"><stop offset="30%" stop-color="#cc5867" stop-opacity="1"></stop><stop offset="70%" stop-color="#593762" stop-opacity="1"></stop></linearGradient></defs><defs><linearGradient id="grad2_3" x1="0%" y1="0%" x2="100%" y2="100%"><stop offset="30%" stop-color="#001220" stop-opacity="1"></stop><stop offset="70%" stop-color="#593762" stop-opacity="1"></stop></linearGradient></defs><g transform="translate(540, 0)"><path d="M0 486C-68.9 484.7 -137.7 483.5 -186 449C-234.2 414.5 -261.9 346.8 -297 297C-332.1 247.2 -374.7 215.3 -407.4 168.8C-440.2 122.3 -463.1 61.1 -486 0L0 0Z" fill="#232745"></path><path d="M0 364.5C-51.6 363.6 -103.3 362.6 -139.5 336.8C-175.7 310.9 -196.4 260.1 -222.7 222.7C-249.1 185.4 -281 161.5 -305.6 126.6C-330.1 91.7 -347.3 45.8 -364.5 0L0 0Z" fill="#96446e"></path><path d="M0 243C-34.4 242.4 -68.9 241.7 -93 224.5C-117.1 207.3 -130.9 173.4 -148.5 148.5C-166 123.6 -187.3 107.6 -203.7 84.4C-220.1 61.1 -231.5 30.6 -243 0L0 0Z" fill="#f17c53"></path><path d="M0 121.5C-17.2 121.2 -34.4 120.9 -46.5 112.3C-58.6 103.6 -65.5 86.7 -74.2 74.2C-83 61.8 -93.7 53.8 -101.9 42.2C-110 30.6 -115.8 15.3 -121.5 0L0 0Z" fill="#fbae3c"></path></g><g transform="translate(0, 960)"><path d="M0 -486C63.5 -480.1 127.1 -474.2 186 -449C244.9 -423.8 299.2 -379.2 326 -326C352.8 -272.7 352.1 -210.8 374.2 -155C396.3 -99.2 441.1 -49.6 486 0L0 0Z" fill="#232745"></path><path d="M0 -364.5C47.7 -360.1 95.3 -355.7 139.5 -336.8C183.7 -317.8 224.4 -284.4 244.5 -244.5C264.6 -204.5 264.1 -158.1 280.6 -116.2C297.2 -74.4 330.8 -37.2 364.5 0L0 0Z" fill="#96446e"></path><path d="M0 -243C31.8 -240.1 63.5 -237.1 93 -224.5C122.4 -211.9 149.6 -189.6 163 -163C176.4 -136.4 176 -105.4 187.1 -77.5C198.1 -49.6 220.6 -24.8 243 0L0 0Z" fill="#f17c53"></path><path d="M0 -121.5C15.9 -120 31.8 -118.6 46.5 -112.3C61.2 -105.9 74.8 -94.8 81.5 -81.5C88.2 -68.2 88 -52.7 93.5 -38.7C99.1 -24.8 110.3 -12.4 121.5 0L0 0Z" fill="#fbae3c"></path></g></svg>