<svg id="visual" viewBox="0 0 900 900" width="900" height="900" xmlns="http://www.w3.org/2000/svg" xmlns:xlink="http://www.w3.org/1999/xlink" version="1.1"><path d="M0 244L82 244L82 172L164 172L164 379L245 379L245 451L327 451L327 334L409 334L409 190L491 190L491 199L573 199L573 145L655 145L655 154L736 154L736 217L818 217L818 334L900 334L900 154L900 0L900 0L818 0L818 0L736 0L736 0L655 0L655 0L573 0L573 0L491 0L491 0L409 0L409 0L327 0L327 0L245 0L245 0L164 0L164 0L82 0L82 0L0 0Z" fill="#b0235f"></path><path d="M0 379L82 379L82 370L164 370L164 550L245 550L245 559L327 559L327 541L409 541L409 361L491 361L491 406L573 406L573 316L655 316L655 298L736 298L736 316L818 316L818 532L900 532L900 253L900 152L900 332L818 332L818 215L736 215L736 152L655 152L655 143L573 143L573 197L491 197L491 188L409 188L409 332L327 332L327 449L245 449L245 377L164 377L164 170L82 170L82 242L0 242Z" fill="#c53762"></path><path d="M0 496L82 496L82 505L164 505L164 631L245 631L245 649L327 649L327 604L409 604L409 523L491 523L491 478L573 478L573 460L655 460L655 478L736 478L736 451L818 451L818 631L900 631L900 352L900 251L900 530L818 530L818 314L736 314L736 296L655 296L655 314L573 314L573 404L491 404L491 359L409 359L409 539L327 539L327 557L245 557L245 548L164 548L164 368L82 368L82 377L0 377Z" fill="#d84a64"></path><path d="M0 613L82 613L82 559L164 559L164 775L245 775L245 748L327 748L327 748L409 748L409 676L491 676L491 586L573 586L573 559L655 559L655 586L736 586L736 595L818 595L818 775L900 775L900 496L900 350L900 629L818 629L818 449L736 449L736 476L655 476L655 458L573 458L573 476L491 476L491 521L409 521L409 602L327 602L327 647L245 647L245 629L164 629L164 503L82 503L82 494L0 494Z" fill="#ea5e66"></path><path d="M0 901L82 901L82 901L164 901L164 901L245 901L245 901L327 901L327 901L409 901L409 901L491 901L491 901L573 901L573 901L655 901L655 901L736 901L736 901L818 901L818 901L900 901L900 901L900 494L900 773L818 773L818 593L736 593L736 584L655 584L655 557L573 557L573 584L491 584L491 674L409 674L409 746L327 746L327 746L245 746L245 773L164 773L164 557L82 557L82 611L0 611Z" fill="#fa7268"></path></svg>