<svg id="visual" viewBox="0 0 540 960" width="540" height="960" xmlns="http://www.w3.org/2000/svg" xmlns:xlink="http://www.w3.org/1999/xlink" version="1.1"><path d="M0 30L60 59L120 68L180 59L240 97L300 78L360 68L420 68L480 30L540 68L540 0L480 0L420 0L360 0L300 0L240 0L180 0L120 0L60 0L0 0Z" fill="#00cc8e"></path><path d="M0 193L60 222L120 174L180 241L240 145L300 260L360 135L420 116L480 183L540 107L540 66L480 28L420 66L360 66L300 76L240 95L180 57L120 66L60 57L0 28Z" fill="#00b288"></path><path d="M0 356L60 395L120 385L180 385L240 327L300 375L360 279L420 270L480 356L540 164L540 105L480 181L420 114L360 133L300 258L240 143L180 239L120 172L60 220L0 191Z" fill="#00977e"></path><path d="M0 510L60 673L120 577L180 500L240 471L300 491L360 615L420 587L480 481L540 491L540 162L480 354L420 268L360 277L300 373L240 325L180 383L120 383L60 393L0 354Z" fill="#038373"></path><path d="M0 711L60 740L120 798L180 788L240 759L300 798L360 769L420 692L480 759L540 759L540 489L480 479L420 585L360 613L300 489L240 469L180 498L120 575L60 671L0 508Z" fill="#038373"></path><path d="M0 865L60 836L120 875L180 836L240 855L300 875L360 865L420 836L480 855L540 827L540 757L480 757L420 690L360 767L300 796L240 757L180 786L120 796L60 738L0 709Z" fill="#00977e"></path><path d="M0 932L60 923L120 932L180 875L240 932L300 932L360 894L420 894L480 884L540 894L540 825L480 853L420 834L360 863L300 873L240 853L180 834L120 873L60 834L0 863Z" fill="#00b288"></path><path d="M0 961L60 961L120 961L180 961L240 961L300 961L360 961L420 961L480 961L540 961L540 892L480 882L420 892L360 892L300 930L240 930L180 873L120 930L60 921L0 930Z" fill="#00cc8e"></path></svg>